<?xml version="1.0" encoding="UTF-8" standalone="no"?>
<!-- Generator: Adobe Illustrator 22.0.1, SVG Export Plug-In . SVG Version: 6.00 Build 0)  -->

<svg
   xmlns:dc="http://purl.org/dc/elements/1.1/"
   xmlns:cc="http://creativecommons.org/ns#"
   xmlns:rdf="http://www.w3.org/1999/02/22-rdf-syntax-ns#"
   xmlns:svg="http://www.w3.org/2000/svg"
   xmlns="http://www.w3.org/2000/svg"
   xmlns:sodipodi="http://sodipodi.sourceforge.net/DTD/sodipodi-0.dtd"
   xmlns:inkscape="http://www.inkscape.org/namespaces/inkscape"
   version="1.1"
   id="Calque_1"
   x="0px"
   y="0px"
   viewBox="0 0 164 96"
   xml:space="preserve"
   sodipodi:docname="Université_d'Orléans_(logo).svg"
   style="enable-background:new 0 0 164 96;"
   inkscape:version="0.92.3 (2405546, 2018-03-11)"><metadata
   id="metadata11"><rdf:RDF><cc:Work
       rdf:about=""><dc:format>image/svg+xml</dc:format><dc:type
         rdf:resource="http://purl.org/dc/dcmitype/StillImage" /></cc:Work></rdf:RDF></metadata><defs
   id="defs9" /><sodipodi:namedview
   pagecolor="#ffffff"
   bordercolor="#666666"
   borderopacity="1"
   objecttolerance="10"
   gridtolerance="10"
   guidetolerance="10"
   inkscape:pageopacity="0"
   inkscape:pageshadow="2"
   inkscape:window-width="1920"
   inkscape:window-height="996"
   id="namedview7"
   showgrid="false"
   inkscape:zoom="2.1768293"
   inkscape:cx="81.771127"
   inkscape:cy="48"
   inkscape:window-x="1912"
   inkscape:window-y="9"
   inkscape:window-maximized="1"
   inkscape:current-layer="Calque_1" />
<style
   type="text/css"
   id="style2">
	.st0{fill:#767375;}
</style>
<path
   class="st0"
   d="M108.8,62.2c0,0,1.2-0.8,1.5-0.6c0,0,0.6,0.2,0.9,0c0,0,0.7-0.6,1.2-0.6c0,0,0.5,0.3,0.2,0.5  c0,0,0.8-0.6,1.1-0.6c0,0,2.5-0.3,2.6-0.7c0,0,0.5-0.7,0.9-0.6c0,0,0.2,0.4-0.1,0.8c0,0,1.1,0.1,0.9,0.4l-0.1,0.2  c0,0,1.6-0.3,1.8-0.1c0,0-0.6,0.5-1.4,0.7l0.6,0.2h6l-0.1,0.5l4.5,0.3l0.1-0.9l2.6,0.1v0.4l2.3,0.3l0.2,0.4L135,63l0.4,0.5l1.5-0.2  l-0.1-0.8c0,0-1.1-0.3-1.6-0.3s0.1-0.4,0.1-0.4l-1.9-0.1l-0.2-0.5l-1-0.1l-0.7-0.2l0.2-0.3l-1.9-0.2c-0.2-1.2,1.5-1.2,1.5-1.2  c-0.1-1.1,2.2-1.2,2.2-1.2c0.3-1.1,2.7,0,2.7,0c0.5,0.1,1.2-0.4,1.2-0.4c-0.9-0.1-0.7-0.9-0.7-0.9c0-0.5,3.5,0,3.5,0  c-0.9-0.7,0.3-0.8,0.3-0.8c1-0.1,1.3-1,1.3-1c-0.5,0.2-0.9-1-0.9-1c0-0.5,2.1,0,2.1,0c0.4-0.8-3.1-2.4-3.1-2.4  C139,51.6,138,50,138,50c-5.4-5.1-10.6-4.3-10.6-4.3c-1,0.7-3,0.3-3,0.3c-16.2,1.2-26,7.4-26,7.4c-0.1,0.8-6,2.5-6,2.5  c-0.8,0-1.2,1.2-1.2,1.2c-0.4,0-1.3,2-1.3,2C89,60.5,90,60.5,90,60.5s0.2-0.3,0.3,0.1c0.1,0.4-0.2,2-0.2,2c-1,0.5,0.8,0.5,0.8,0.5  C90.2,64,97,63.8,97,63.8c-0.4,0.8,1.3,0.9,1.3,0.9l4.3-0.1c0,0,2.8-0.6,3.8-0.6c0,0,0.8-0.3,0.9-0.2c0,0,0.5-0.3,0.7-0.2  c0,0,1.2-0.2,1.4,0h1.2l-0.2-0.3c0,0-2-0.2-2.1,0c0,0-0.7,0.3-0.9,0.2c0,0-0.8,0.2-1,0.2h-1c0,0-1.5,0.1-0.3-0.5l-0.4-0.3  c0,0,0.6-1.6,1.5-1.5c0.1,0.1,0.7,0.7,0.4,0.8l0.4-0.1l-0.9,0.6C106.7,62.6,108.5,62.1,108.8,62.2L108.8,62.2z M116.1,59l-0.4,0.5  l-0.3-0.2C115.4,59.3,116.1,59,116.1,59z M108.2,60.4h1.5l-0.2,0.3v0.2l-1.1,0.1v-0.4h-0.9C107.5,60.6,108.2,60.4,108.2,60.4z   M116.4,61.8c0,0-0.8,0-1,0.2c0,0-0.5,0.6-0.9,0.4c-0.4-0.2-0.1,0.1-0.1,0.1h-1c0,0-0.2,0.5,0.4,0.5c0,0,2-0.8,2.4-0.6  c0,0,0.2-0.6,1.6-0.5l0.5-0.3C118.2,61.6,116.5,61.6,116.4,61.8z M121.2,30.3l-2.1,1.1v12.7l2,0.2L121.2,30.3L121.2,30.3z   M121.1,77.2V63.4l-2.1,0.4v13.3L121.1,77.2L121.1,77.2z M113.7,33.4v11.7l2.1-0.4V32.5L113.7,33.4z M113.7,77.2h2.1V64.4l-2.1,0.2  C113.7,64.6,113.7,77.2,113.7,77.2z M110.5,65.1l-2.1,0.2v11.9h2.1V65.1z M108.4,36.3v10.5l2.1-0.4V35L108.4,36.3z M105.1,65.7  l-2.1-0.2l0.1,11.7h2.1L105.1,65.7z M103.1,38.9v10.3l2.1-1l-0.1-9.9C105.1,38.3,103.1,38.9,103.1,38.9z M99.5,65.7l-2.1-0.2  l0.1,11.7h2.1L99.5,65.7L99.5,65.7z M92.2,65v12.2h2.1V65.5L92.2,65z M94.2,44.2L92.1,46v7.8l2.1-0.6V44.2z M88.8,48.1l-2.1,1.2  v27.8h2.1C88.8,77.1,88.8,48.1,88.8,48.1z M81.4,77.1h2.1V51.4l-2.1,1.7V77.1z M76,57.6v19.5h2.1V55.5L76,57.6z M70.4,77.1h2.1V60.5  L70.4,63V77.1z M65.2,67v10.1h2.1V65.4L65.2,67z M59.7,77.1h2.1V70l-2.1,1.1V77.1z M56.6,73.2l-2.1,1.1v2.8h2.1V73.2z M99.7,51v-9.8  l-2.1,1.3v9.6C97.6,52.1,99.7,51,99.7,51z M8.9,90.6c0,1.9-0.6,3.6-2.8,3.6s-2.8-1.7-2.8-3.6v-6.8H1.9v7.3c0,2.5,1.6,4.5,4.2,4.5  s4.2-1.9,4.2-4.5v-7.3H8.9V90.6z M20.9,92.4l-8.7-9.1v12.1h1.4v-8.6l8.7,9.1v-12h-1.4V92.4z M24.3,95.4h1.4V83.8h-1.4V95.4z   M31.8,92.4l-3.4-8.6h-1.6l5,12.2l5-12.2h-1.6C35.2,83.8,31.8,92.4,31.8,92.4z M37.7,95.4h6.2v-1.3h-4.8v-4.4h4.6v-1.3h-4.6v-3.2  h4.8v-1.3h-6.2C37.7,83.9,37.7,95.4,37.7,95.4z M52,87.1c0-1.1-0.5-2.2-1.5-2.8c-0.9-0.5-2-0.5-3-0.5h-1.7v11.6h1.4v-4.9h0.6  l3.4,4.9h1.7l-3.6-5C50.9,90.2,52,88.8,52,87.1z M47.6,89.3h-0.5v-4.2h0.4c1.4,0,3.1,0.3,3.1,2.1C50.7,89,49.1,89.3,47.6,89.3z   M57.8,88.6L57,88.2c-0.7-0.3-1.6-0.8-1.6-1.7c0-1,1-1.6,1.9-1.6s1.4,0.4,1.9,1.1l1.1-0.7c-0.6-1.1-1.7-1.7-3-1.7  c-1.7,0-3.4,1.1-3.4,3c0,1.6,1.2,2.4,2.5,2.9l0.8,0.3c1,0.4,2,1,2,2.2s-0.9,2.3-2.1,2.3c-1.2,0-2.2-0.9-2.2-2.2l-1.5,0.3  c0.2,1.9,1.7,3.2,3.6,3.2c2.1,0,3.7-1.5,3.7-3.6C60.7,90.1,59.5,89.2,57.8,88.6L57.8,88.6z M62.2,95.4h1.4V83.8h-1.4V95.4z   M64.8,85.1h2.7v10.2h1.4V85.1h2.7v-1.3h-6.9v1.3H64.8z M72.8,95.4H79v-1.3h-4.8v-4.4h4.6v-1.3h-4.6v-3.2H79v-1.3h-6.2  C72.8,83.9,72.8,95.4,72.8,95.4z M87.5,83.8h-2.4v11.6h2.3c3.6,0,6.5-1.9,6.5-5.8C94,85.7,91,83.8,87.5,83.8z M87,94.1h-0.5v-8.9H87  c2.9,0,5.5,1.1,5.5,4.5C92.5,93,90,94.1,87,94.1z M96,88.9h1l0.3-5h-1.5L96,88.9z M104.9,83.6c-3.3,0-6.1,2.7-6.1,6  c0,3.4,2.7,6,6.1,6c3.3,0,6-2.6,6-6C110.9,86.3,108.2,83.6,104.9,83.6z M104.9,94.3c-2.5,0-4.6-2-4.6-4.7c0-2.5,1.9-4.7,4.6-4.7  s4.6,2.1,4.6,4.7S107.4,94.3,104.9,94.3z M118.6,87.1c0-1.1-0.5-2.2-1.5-2.8c-0.9-0.5-2-0.5-3-0.5h-1.7v11.6h1.4v-4.9h0.6l3.4,4.9  h1.7l-3.6-5C117.5,90.2,118.6,88.8,118.6,87.1z M114.2,89.3h-0.5v-4.2h0.4c1.4,0,3.1,0.3,3.1,2.1C117.3,89,115.7,89.3,114.2,89.3z   M122.1,83.8h-1.4v11.6h4.9v-1.3h-3.5C122.1,94.1,122.1,83.8,122.1,83.8z M126.5,95.4h6.2v-1.3H128v-4.4h4.6v-1.3H128v-3.2h4.8v-1.3  h-6.2v11.5L126.5,95.4z M133.3,95.4h1.5l1.3-2.9h5.3l1.3,2.9h1.5l-5.5-12L133.3,95.4L133.3,95.4z M136.8,91.2l2.1-4.7l2.1,4.7H136.8  L136.8,91.2z M153.8,92.4l-8.7-9.1v12.1h1.4v-8.6l8.7,9.1v-12h-1.4V92.4z M161.1,88.6l-0.8-0.3c-0.7-0.3-1.6-0.8-1.6-1.7  c0-1,1-1.6,1.9-1.6s1.4,0.4,1.9,1.1l1.1-0.7c-0.6-1.1-1.7-1.7-3-1.7c-1.7,0-3.4,1.1-3.4,3c0,1.6,1.2,2.4,2.5,2.9l0.8,0.3  c1,0.4,2,1,2,2.2s-0.9,2.3-2.1,2.3c-1.2,0-2.3-0.9-2.2-2.2l-1.5,0.3c0.2,1.9,1.7,3.2,3.6,3.2c2.1,0,3.7-1.5,3.7-3.6  C164,90.1,162.7,89.2,161.1,88.6L161.1,88.6z M146.6,23.7c0,0-0.1,0,0.5-0.1s1.2,0.1,1.2,0.1s0.1,0.2,0.3,0s0.3-0.2,0.3-0.2l0.7,0.2  l1-0.1h0.3L151,24l0.8-0.2l0.5,0.5l2.1-0.1c0,0,2.2,0.3,3,0.6c-0.3-0.2-1-0.5-2.7-0.8c-0.6-0.1-1-0.2-1.2-0.2l-0.1,0.1  c0,0-0.9,0-1.1-0.1c0,0-1.7-0.1,1.5-0.7l1.5,0.2l0.3-0.1l0.6,0.2l0.2,0.1l0.7,0.1l0.5,0.1h0.2c0,0,0.5,0,0.5,0.1  c0.1,0.1,0.2,0.4,0.2,0.4h0.7c0,0,3.1,0.7,3.2,0.8l-0.1-0.5l-0.2,0.1l-0.5-0.1l-0.5-0.3h-0.7l-0.1-0.2H160l-0.3-0.3h-0.3l-0.3-0.2  l-0.3-0.2h-1V23l-0.3,0.1v-0.4l-0.4,0.1l-0.6-0.1l-1-0.4l-0.3-0.4h-0.8l-1.2-0.1l0.1-0.2l-0.5-0.1l-0.1-0.2l-2.4-0.1l-0.9-0.5  l-1.5,0.2l-0.4-0.2h-1l-0.9,0.1l-0.3-0.7l-0.9,0.1l-1.8-0.2l-0.3,0.3l-0.2,0.2l-0.7,0.1l-0.5-0.2l-0.2,0.2h-0.8l-0.2-0.1v-0.2  l-0.1-0.2h-1.2l-1-0.2l0.9-0.6l0.3-0.5l0.5,0.1l0.2,0.2l0.6,0.2h2.6l-0.1-0.4h0.3l0.1,0.3l1.4,0.2l0.4-0.1h0.8l0.7,0.2l-0.2,0.3  l0.4,0.1l0.7-0.1h0.5l2,0.2l0.8,0.3l0.6,0.2h1.4l0.3,0.1h0.2l1,0.1l0.8-0.1l0.1,0.5l0.9,0.1l1-0.2l4.8,1.6l0.4-0.6h0.7l-3.8-1.8  l0.3-0.4l-0.9-0.5l0.6-0.6l-1.2-0.2l0.2-0.4l-0.5-0.1l-0.4-0.2l0.7-0.3l-1.9-0.1l0.2-0.5l-1.5-0.1v-0.5l0.5-0.4l0.2-0.6l-1.6,0.2  l0.2-0.6l0.9-0.5l0.1-0.4l-0.6,0.3l-0.7,0.4h-1.6l-0.2-0.5H151l-1.2-0.2v-0.5l0.4-0.2l0.2-0.5l-1.9-0.1v-0.3H148l0.3-0.4h-2.8  l-0.1-0.5l-1.3-0.2l0.3-0.5l0.8-0.3v-0.4h-2.5l0.5-0.8l-0.5-0.2l2.5,0.2l-0.1,0.4l1.1-0.9v0.5l0.7,0.1l0.1,0.1l0.5-0.1l-0.2,0.5  l2.4,0.1v0.6l0.5,0.3v0.7l0.7,0.2l0.5-1.8l0.4,0.4l0.9,0.3v0.4h0.8l-0.2,0.6l-0.7,0.5l0.5,0.2l1.2-1.2l1-0.1l-0.2,0.7h0.8v0.6h3.3  v0.4l1.4,0.1l-0.1,0.7l1.1,0.1l0.2,0.4l1.8,0.9l-0.6-1.2l-0.3-0.5l-0.2,0.1l-0.6-0.8l-1.8-0.2l-0.1-0.3l-0.6-0.1l-0.2-0.6h-0.8  l0.1-0.1l-0.6-0.5v-0.2h-1.2l0.2-0.3c0,0-0.9-0.4-1.3-0.4c-0.3,0,0.1-0.2,0.1-0.2l-1.6-0.5l-0.3-0.5l-1.2-0.1l0.5-0.3L152,8  l-0.3-0.2l-0.2-0.1V7.5l-1.3-0.2l0.1-0.5L150,6.7V6h-1.1L148,5.4l-2.8-0.1l0.2-0.4l-0.6-0.2l-2.7-0.1l0.1-0.7h-2.8l0.2-0.4L136,3.3  l-0.5-0.5h-12.2l5.5-0.9l2.1-0.2l0.9-0.1l1.6,0.4c0,0,0-0.5,0.1-0.6c0.1-0.2,0-1.2,0-1.2s-1.3,0.3-1.3-0.1l-1.4,0.7l-1.9,0.4  l-3.4-0.4L124.9,0L124,0.5l-0.3,0.8l-0.5-0.1V0.1l-1,0.5l-0.8,0.2c0,0-3.2,0.1-4.6,0.4c0,0-6.3,0.7-7.9,1.3c0,0-13.3,4.6-17.8,7.3  c0,0-20.6,11.6-23.5,13.2c0,0-8.1,8-8.8,4.3c0,0,0.2-0.8,0.9-1.1L59,26.3c0,0,0.3-0.6,0.7-0.7l-1,0.2c0,0,0.6-0.7,0.7-0.7L59,25.2  c0,0,0.1-1.7,0.4-1.8l0.1-0.3c0,0-0.8-0.1-0.8,0.2c0,0,0.2-1.5,0.9-1.8c0,0-0.4-0.9,0.2-1.4c0,0-0.9,0.9-1.1,0.9  c0,0-1.2,0.3-0.8-0.2c0,0-1.3,1-0.7-0.3c0,0-1.8,1.2-1.4-0.2c0,0-11.8,9.8-11.7,7.9c0,0-6.8,8.2-6,4.2c0,0-2.8,1.4-2-0.2  c0,0-1.6,1.8-1.2-0.6c0,0-0.4-0.5-0.1-1.4c0,0-2.2,2.3-1.8,0.7c0,0-1.1,0-0.7-0.7c0,0-1.2,1.1-1.4,0.4c0,0-0.9-1.1,3.5-5.6  c0,0-5.6,3.7-5.4,2.1c0,0-0.2-0.5,0.4-1.3c0,0-6.2,5.2-7.3,6.2c0,0-10,9.3-11.5,10.9c-1.4,1.6-1.5,1.8-1.5,1.8s-4,4.4-4.4,5.5  c0,0-2.1-0.3-2.3,1.6c0,0-0.7,0.5-0.3,3.6c0,0-2.3,3-1.8,4.1l1.1-1c0,0,0.3-1.6,0.7-1c0,0,2.3-3.6,2.3-2.6c0,0,0.7,0.3,1.5,0.3  c0,0,0.3-0.2,0.2,1.6c0,0,0.6,0.3,0.1,0.9c0,0-0.1,0.5-0.7-0.2c0,0,0.1,2.1,0.9,2.2c0,0-1.4,2.2-2.2,2.4L4,62.5l-0.2,0.2V63  l-0.2,0.2l0.1,0.5l-0.3,0.1l-0.5,0.3l0.3,0.2c0,0,0.4,2.4,0,2.6l0.1,0.2l-0.2,0.6l0.4,0.1l0.2-0.1c0,0,0.5,1,0.2,1.2L4.3,69  c0,0,0.3,0.3,0.2,0.5l0.4,0.3c0,0,0.3-0.6,0.4-0.9c0,0,0.6-0.5,0.6-0.2c0,0,0.7-0.9,1-0.9l1-1.5h0.3L8,67.2l0.3,0.2l-0.8,1.9  l0.2,0.2L8.6,69h0.3l-0.5,0.8c0,0,0.9-0.8,1.1-0.7c0.2,0.2,0.3,0.1,0.3,0.1l-0.3,0.4c0,0,4.4-1.9,5.1-1.7c0,0,5.1-1.1,5.2-1.4  c0.2-0.3-0.1,0.2-0.1,0.2l2.9-1.2l-0.4,0.8l0.8-0.1l-0.9,0.6c0,0,1.5,0.4,1.3,0.8l6.4-1.1v0.9H30l-0.2,0.4l0.2,0.3  c0,0-1.3,3.6-1.2,4.7l0.4,0.8l0.2,0.6l0.5,0.1l0.3,0.5c0,0,1.4,0.3,1.2,0.7c0,0,0.9,1,0.8,1.3c0,0,1.5,1.3,1.2,1.7  c0,0,4.9-0.4,5.1,0.3c0,0,3.5-1.4,4-1.4l1-0.2l0.1-0.3l1,0.1l0.4-0.1l0.3-0.6l1.2-0.3v0.3L47,76h0.2l0.2,0.4l1.1-0.7  c0,0,4.3-1.4,4.4-2.1c0.1-0.8,0.6-0.6,0.6-0.6l0.7-0.4l0.5-0.5l0.3-0.4h0.5l2.8-2.2c0,0,1.8-2.2,2.1-2.2s2-1.7,2-1.7  s1.1-1.7,1.4-1.8c0.3-0.1,3.3-1.8,3.3-1.8s0.9-1.4,1.3-1.6c0.4-0.2,1.1-0.4,1.1-0.4l0.5-0.5c0,0,4.7-4.2,5.5-4.7s9.9-6.2,10.1-6.6  c0.1-0.4,6.2-4.3,6.5-4.3s3.1-2.4,3.1-2.6c0.1-0.3,4.9-2.9,5.4-3c0.4-0.1,2-0.9,2-0.9l1.5-1.5c0.3-0.3,2.6-2.2,2.6-2.2v0.7l0.4,0.1  l0.2-0.1l-0.3-0.3l0.5-0.4l1,0.1l0.4-0.6l0.4-0.5h0.2l0.3-0.3L110,32l0.5,0.1l0.2-0.2l0.2-0.3h0.5l0.9-0.9l0.7,0.1l0.2-0.2l0.1-0.4  l0.8-0.2l0.4,0.1l1.1-0.2L116,29l0.3-0.1l0.2-0.1l0.2-0.5l0.3,0.1l0.3-0.3l0.3-0.4l0.2,0.4l0.5,0.1l0.1-0.4l0.7-0.1l0.4-0.3l0.3,0.1  l0.2-0.3V27l0.8-0.2l1.2-0.3l0.3,0.3l0.5-0.7l0.3-0.1l0.3-0.5l0.2,0.6l1.1,0.2l0.4-0.5l0.8-0.2l0.6-0.6l0.8-0.2l0.2-0.4l0.9-0.3  l-0.1,0.9l0.6-0.1l0.2-0.7l0.4-0.1l0.2,0.7l1-0.1l0.7,0.1l0.3-0.5l0.4-0.6l0.5,0.2l0.8-0.3l1.1-0.2l0.6,0.7l0.4-0.6l0.3,0.4l0.2-0.2  c0,0,2.9-0.2,3.4-0.1c0.5,0,0.9,0.2,0.9,0.2l0.8-0.2l0.2-0.2c0,0,0.2,0.1,0.3,0.1h4.1L146.6,23.7L146.6,23.7z M150.2,14.6l0.1,0.4  l-0.8,0.4l-1.8-0.3C147.7,15.1,150.2,14.6,150.2,14.6z M114.3,2l0.4,0.2l-1.1,1.2l-0.2-0.2C113.4,3.2,114.3,2,114.3,2z M113.4,23.4  l0.3-0.3l0.1,0.6l1.2-0.5l-1.7,1.4l0.4-0.6c0,0-0.9,0.4-1.1,0.5C112.5,24.6,113,23.7,113.4,23.4z M115.9,25l-0.3,0.5l-0.4,0.2  l-0.6,0.1V26l0.4,0.2c0,0.5-0.7,0.6-0.7,0.6v-0.6h-0.2l-0.3,0.6c-0.3,0.8-1.2,0.5-1.2,0.5l0.2-0.3l0.3-0.3l0.7-0.4  c-0.2,0-0.8-0.2-0.8-0.2l-0.1-0.5c0,0-0.2-0.2-0.2,0.2c-0.1,0.4-0.5,0.4-0.5,0.4s-0.2,0.2-0.4,0.2s-0.1,0.2-0.1,0.2l-1.1,1l-1.8,0.5  l-0.6,0.7l0.1,0.5c-0.5,1-4.1,2.5-4.3,2.7c-2.7,1.1-2,1.6-2,1.6c-0.7,0-2.1,1.1-2.6,1.4c-0.5,0.8-2.1,1-2.1,1  c0.3-0.1,1.2-1.3,1.2-1.3c-0.5,0.5-1.2,0.7-1.2,0.7c-1.4,0-1.1-0.6-1.1-0.6c1-0.2,1.3-1.3,1.3-1.3c0.3,0,1.9-1.1,1.9-1.1  c0.3-0.5,2.9-2,3.1-2.1c0.9-0.2,3.6-2,3.6-2c0.2-0.2,2.7-1,2.9-1.1c0.3-0.3,2.9-1.4,2.9-1.4l3-1.5h0.9L115.9,25L115.9,25z M119.8,2  l-1.1,0.4c0,0,0.1-0.5,0.2-0.5s1.1-0.5,1.1-0.5L119.8,2z M120.9,23.7l-0.9,0.4l-0.2-0.5l1.2-0.5L120.9,23.7z M128.7,22.8  c-0.2,0,0.3-0.7,0.6-1.1l3.4-0.1l0.1,0.3C132.8,21.9,128.8,22.7,128.7,22.8z M134.5,19.5l-2.2,0.2V19c0,0,2.2,0.1,2.3,0.1  C134.7,19.2,134.5,19.5,134.5,19.5z M136,8.7l-1.2,0.7L134.5,9L136,8.7C136,8.6,136,8.7,136,8.7z M139.7,21.5l-1.4,0.2l-0.3-0.4  c0,0,0.7-0.2,0.9-0.3l0.7-0.1v0.6L139.7,21.5z M134.8,0.6l-0.3-0.2l-0.3,0.5h0.5L134.8,0.6z M134.2,1.3L134,1.4l-0.2,0.3l0.4-0.1  V1.3z"
   id="path4" />
</svg>